{
  "accessors": [
    {
      "bufferView": 1,
      "componentType": 5126,
      "count": 65534,
      "max": [
        3.308905601501465,
        3.7876155376434326,
        1.1696665287017822
      ],
      "min": [
        -3.278400421142578,
        -1.434149980545044,
        -1.523186206817627
      ],
      "type": "VEC3"
    },
    {
      "bufferView": 1,
      "byteOffset": 786408,
      "componentType": 5126,
      "count": 65534,
      "max": [
        0.999918520450592,
        0.999910295009613,
        0.9999228715896606
      ],
      "min": [
        -0.99985271692276,
        -0.9995771050453186,
        -0.9999951124191284
      ],
      "type": "VEC3"
    },
    {
      "bufferView": 0,
      "componentType": 5125,
      "count": 65583,
      "type": "SCALAR"
    },
    {
      "bufferView": 1,
      "byteOffset": 1572816,
      "componentType": 5126,
      "count": 64868,
      "max": [
        3.680046558380127,
        3.820589303970337,
        1.107629656791687
      ],
      "min": [
        -3.4507713317871094,
        -1.6887072324752808,
        -1.7175734043121338
      ],
      "type": "VEC3"
    },
    {
      "bufferView": 1,
      "byteOffset": 2351232,
      "componentType": 5126,
      "count": 64868,
      "max": [
        0.9998905062675476,
        0.999901294708252,
        0.9999868273735046
      ],
      "min": [
        -0.999933660030365,
        -0.9999894499778748,
        -0.9999397397041321
      ],
      "type": "VEC3"
    },
    {
      "bufferView": 0,
      "byteOffset": 262332,
      "componentType": 5125,
      "count": 64914,
      "type": "SCALAR"
    }
  ],
  "asset": {
    "extras": {
      "author": "victory_mirosya (https://sketchfab.com/victory_mirosya)",
      "license": "CC-BY-4.0 (http://creativecommons.org/licenses/by/4.0/)",
      "source": "https://sketchfab.com/3d-models/monster-9e97787cc9b242bc84837fd4358bbdee",
      "title": "monster"
    },
    "generator": "Sketchfab-12.65.0",
    "version": "2.0"
  },
  "bufferViews": [
    {
      "buffer": 0,
      "byteLength": 521988,
      "name": "floatBufferViews",
      "target": 34963
    },
    {
      "buffer": 0,
      "byteLength": 3129648,
      "byteOffset": 521988,
      "byteStride": 12,
      "name": "floatBufferViews",
      "target": 34962
    }
  ],
  "buffers": [
    {
      "byteLength": 3651636,
      "uri": "scene.bin"
    }
  ],
  "materials": [
    {
      "doubleSided": true,
      "name": "Scene_-_Root",
      "pbrMetallicRoughness": {
        "baseColorFactor": [
          0.05194709260017949,
          0.07921394813062767,
          0.07327411688178195,
          1.0
        ],
        "metallicFactor": 0.0,
        "roughnessFactor": 0.6
      }
    }
  ],
  "meshes": [
    {
      "name": "Object_0",
      "primitives": [
        {
          "attributes": {
            "NORMAL": 1,
            "POSITION": 0
          },
          "indices": 2,
          "material": 0,
          "mode": 4
        }
      ]
    },
    {
      "name": "Object_1",
      "primitives": [
        {
          "attributes": {
            "NORMAL": 4,
            "POSITION": 3
          },
          "indices": 5,
          "material": 0,
          "mode": 4
        }
      ]
    }
  ],
  "nodes": [
    {
      "children": [
        1
      ],
      "matrix": [
        1.0,
        0.0,
        0.0,
        0.0,
        0.0,
        2.220446049250313e-16,
        -1.0,
        0.0,
        0.0,
        1.0,
        2.220446049250313e-16,
        0.0,
        0.0,
        0.0,
        0.0,
        1.0
      ],
      "name": "Sketchfab_model"
    },
    {
      "children": [
        2
      ],
      "name": "root"
    },
    {
      "children": [
        3
      ],
      "matrix": [
        1.0,
        0.0,
        0.0,
        0.0,
        0.0,
        2.220446049250313e-16,
        1.0,
        0.0,
        0.0,
        -1.0,
        2.220446049250313e-16,
        0.0,
        0.0,
        0.0,
        0.0,
        1.0
      ],
      "name": "GLTF_SceneRootNode"
    },
    {
      "children": [
        4,
        5
      ],
      "matrix": [
        -1.4501067399978638,
        -0.0,
        -0.0,
        -0.0,
        -0.0,
        -1.4501067399978638,
        -0.0,
        -0.0,
        -0.0,
        -0.0,
        -1.4501067399978638,
        -0.0,
        1.7691702842712402,
        3.3614230155944824,
        0.0,
        1.0
      ],
      "name": "Icosphere_0"
    },
    {
      "mesh": 0,
      "name": "Object_4"
    },
    {
      "mesh": 1,
      "name": "Object_5"
    }
  ],
  "scene": 0,
  "scenes": [
    {
      "name": "Sketchfab_Scene",
      "nodes": [
        0
      ]
    }
  ]
}
