{
  "accessors": [
    {
      "bufferView": 2,
      "componentType": 5126,
      "count": 964,
      "max": [
        49.463470458984375,
        49.463470458984375,
        45.70188903808594
      ],
      "min": [
        -49.463470458984375,
        -49.463470458984375,
        -53.22505187988281
      ],
      "type": "VEC3"
    },
    {
      "bufferView": 2,
      "byteOffset": 11568,
      "componentType": 5126,
      "count": 964,
      "max": [
        1.0,
        1.0,
        1.0
      ],
      "min": [
        -1.0,
        -1.0,
        -1.0
      ],
      "type": "VEC3"
    },
    {
      "bufferView": 1,
      "componentType": 5126,
      "count": 964,
      "max": [
        0.9872199892997742,
        0.9867100119590759
      ],
      "min": [
        0.006920000072568655,
        0.005030000116676092
      ],
      "type": "VEC2"
    },
    {
      "bufferView": 0,
      "componentType": 5125,
      "count": 5184,
      "type": "SCALAR"
    },
    {
      "bufferView": 2,
      "byteOffset": 23136,
      "componentType": 5126,
      "count": 32,
      "max": [
        6.666110038757324,
        7.533450126647949,
        -3.7597899436950684
      ],
      "min": [
        -7.913430213928223,
        -5.791309833526611,
        -3.767090082168579
      ],
      "type": "VEC3"
    },
    {
      "bufferView": 2,
      "byteOffset": 23520,
      "componentType": 5126,
      "count": 32,
      "max": [
        0.006489992141723633,
        -0.0,
        -0.99997878074646
      ],
      "min": [
        -0.0007899998454377055,
        -0.0006399969570338726,
        -1.0
      ],
      "type": "VEC3"
    },
    {
      "bufferView": 1,
      "byteOffset": 7712,
      "componentType": 5126,
      "count": 32,
      "max": [
        0.7164199948310852,
        0.04287999868392944
      ],
      "min": [
        0.7054399847984314,
        0.0328500010073185
      ],
      "type": "VEC2"
    },
    {
      "bufferView": 0,
      "byteOffset": 20736,
      "componentType": 5125,
      "count": 66,
      "type": "SCALAR"
    },
    {
      "bufferView": 2,
      "byteOffset": 23904,
      "componentType": 5126,
      "count": 6067,
      "max": [
        6.666110038757324,
        7.533450126647949,
        6.950009822845459
      ],
      "min": [
        -8.17416000366211,
        -5.791309833526611,
        -3.798640012741089
      ],
      "type": "VEC3"
    },
    {
      "bufferView": 2,
      "byteOffset": 96708,
      "componentType": 5126,
      "count": 6067,
      "max": [
        1.0,
        1.0,
        1.0
      ],
      "min": [
        -1.0,
        -1.0,
        -1.0
      ],
      "type": "VEC3"
    },
    {
      "bufferView": 1,
      "byteOffset": 7968,
      "componentType": 5126,
      "count": 6067,
      "max": [
        0.9993799924850464,
        1.0000699758529663
      ],
      "min": [
        0.0008200000156648457,
        0.0008200000156648457
      ],
      "type": "VEC2"
    },
    {
      "bufferView": 0,
      "byteOffset": 21000,
      "componentType": 5125,
      "count": 22437,
      "type": "SCALAR"
    }
  ],
  "asset": {
    "extras": {
      "author": "luyssport (https://sketchfab.com/luyssport)",
      "license": "CC-BY-NC-SA-4.0 (http://creativecommons.org/licenses/by-nc-sa/4.0/)",
      "source": "https://sketchfab.com/3d-models/toon-houses-day-version-3a33d33a6813410882f63d18c8189755",
      "title": "Toon houses day version"
    },
    "generator": "Sketchfab-12.68.0",
    "version": "2.0"
  },
  "bufferViews": [
    {
      "buffer": 0,
      "byteLength": 110748,
      "name": "floatBufferViews",
      "target": 34963
    },
    {
      "buffer": 0,
      "byteLength": 56504,
      "byteOffset": 110748,
      "byteStride": 8,
      "name": "floatBufferViews",
      "target": 34962
    },
    {
      "buffer": 0,
      "byteLength": 169512,
      "byteOffset": 167252,
      "byteStride": 12,
      "name": "floatBufferViews",
      "target": 34962
    }
  ],
  "buffers": [
    {
      "byteLength": 336764,
      "uri": "scene.bin"
    }
  ],
  "extensionsUsed": [
    "KHR_materials_unlit"
  ],
  "images": [
    {
      "uri": "textures/houses_baseColor.jpeg"
    },
    {
      "uri": "textures/material_baseColor.jpeg"
    }
  ],
  "materials": [
    {
      "extensions": {
        "KHR_materials_unlit": {}
      },
      "name": "houses",
      "pbrMetallicRoughness": {
        "baseColorTexture": {
          "index": 0
        },
        "metallicFactor": 0.0
      }
    },
    {
      "extensions": {
        "KHR_materials_unlit": {}
      },
      "name": "material",
      "pbrMetallicRoughness": {
        "baseColorTexture": {
          "index": 1
        },
        "metallicFactor": 0.0
      }
    }
  ],
  "meshes": [
    {
      "name": "sky",
      "primitives": [
        {
          "attributes": {
            "NORMAL": 1,
            "POSITION": 0,
            "TEXCOORD_0": 2
          },
          "indices": 3,
          "material": 1,
          "mode": 4
        }
      ]
    },
    {
      "name": "Circle",
      "primitives": [
        {
          "attributes": {
            "NORMAL": 5,
            "POSITION": 4,
            "TEXCOORD_0": 6
          },
          "indices": 7,
          "material": 0,
          "mode": 4
        }
      ]
    },
    {
      "name": "houses",
      "primitives": [
        {
          "attributes": {
            "NORMAL": 9,
            "POSITION": 8,
            "TEXCOORD_0": 10
          },
          "indices": 11,
          "material": 0,
          "mode": 4
        }
      ]
    }
  ],
  "nodes": [
    {
      "children": [
        1
      ],
      "matrix": [
        1.6666666269302368,
        0.0,
        0.0,
        0.0,
        0.0,
        3.70074332718459e-16,
        -1.6666666269302368,
        0.0,
        0.0,
        1.6666666269302368,
        3.70074332718459e-16,
        0.0,
        0.0,
        0.0,
        0.0,
        1.0
      ],
      "name": "Sketchfab_model"
    },
    {
      "children": [
        2,
        4,
        6
      ],
      "name": "Root"
    },
    {
      "children": [
        3
      ],
      "name": "sky"
    },
    {
      "mesh": 0,
      "name": "sky"
    },
    {
      "children": [
        5
      ],
      "matrix": [
        1.0,
        0.0,
        0.0,
        0.0,
        0.0,
        1.0,
        0.0,
        0.0,
        0.0,
        0.0,
        1.0,
        0.0,
        0.0,
        0.0,
        -0.010000000000000002,
        1.0
      ],
      "name": "Circle"
    },
    {
      "mesh": 1,
      "name": "Circle"
    },
    {
      "children": [
        7
      ],
      "name": "houses"
    },
    {
      "mesh": 2,
      "name": "houses"
    }
  ],
  "samplers": [
    {
      "magFilter": 9729,
      "minFilter": 9987,
      "wrapS": 10497,
      "wrapT": 10497
    }
  ],
  "scene": 0,
  "scenes": [
    {
      "name": "Sketchfab_Scene",
      "nodes": [
        0
      ]
    }
  ],
  "textures": [
    {
      "sampler": 0,
      "source": 0
    },
    {
      "sampler": 0,
      "source": 1
    }
  ]
}
