{
  "accessors": [
    {
      "bufferView": 3,
      "componentType": 5126,
      "count": 358,
      "max": [
        23.91633415222168,
        52.78120803833008,
        12.696111679077148
      ],
      "min": [
        -23.91633415222168,
        33.032020568847656,
        -12.749215126037598
      ],
      "type": "VEC3"
    },
    {
      "bufferView": 3,
      "byteOffset": 4296,
      "componentType": 5126,
      "count": 358,
      "max": [
        0.9978959560394287,
        1.0,
        0.9999117255210876
      ],
      "min": [
        -0.9978959560394287,
        -1.0,
        -0.9999155402183533
      ],
      "type": "VEC3"
    },
    {
      "bufferView": 2,
      "componentType": 5126,
      "count": 358,
      "max": [
        0.9591259956359863,
        0.9947511553764343
      ],
      "min": [
        0.0019613236654549837,
        0.1982712745666504
      ],
      "type": "VEC2"
    },
    {
      "bufferView": 1,
      "componentType": 5125,
      "count": 780,
      "type": "SCALAR"
    },
    {
      "bufferView": 3,
      "byteOffset": 8592,
      "componentType": 5126,
      "count": 1027,
      "max": [
        32.98973083496094,
        20.196056365966797,
        32.53428268432617
      ],
      "min": [
        -32.98973083496094,
        -20.19605255126953,
        -5.667451858520508
      ],
      "type": "VEC3"
    },
    {
      "bufferView": 3,
      "byteOffset": 20916,
      "componentType": 5126,
      "count": 1027,
      "max": [
        1.0,
        1.0,
        1.0
      ],
      "min": [
        -1.0,
        -1.0,
        -1.0
      ],
      "type": "VEC3"
    },
    {
      "bufferView": 2,
      "byteOffset": 2864,
      "componentType": 5126,
      "count": 1027,
      "max": [
        0.9966849088668823,
        0.9961887001991272
      ],
      "min": [
        0.004417378921061754,
        0.002708329586312175
      ],
      "type": "VEC2"
    },
    {
      "bufferView": 1,
      "byteOffset": 3120,
      "componentType": 5125,
      "count": 2058,
      "type": "SCALAR"
    },
    {
      "bufferView": 3,
      "byteOffset": 33240,
      "componentType": 5126,
      "count": 607,
      "max": [
        84.38117218017578,
        81.10232543945313,
        2.5709986686706543
      ],
      "min": [
        -86.82763671875,
        -88.60762786865234,
        -24.230693817138672
      ],
      "type": "VEC3"
    },
    {
      "bufferView": 3,
      "byteOffset": 40524,
      "componentType": 5126,
      "count": 607,
      "max": [
        0.9780100584030151,
        0.9961568713188171,
        1.0
      ],
      "min": [
        -0.9935815930366516,
        -0.9654344320297241,
        -0.8315404653549194
      ],
      "type": "VEC3"
    },
    {
      "bufferView": 2,
      "byteOffset": 11080,
      "componentType": 5126,
      "count": 607,
      "max": [
        0.9963179230690002,
        0.9951238036155701
      ],
      "min": [
        0.0019620731472969055,
        0.003778957761824131
      ],
      "type": "VEC2"
    },
    {
      "bufferView": 1,
      "byteOffset": 11352,
      "componentType": 5125,
      "count": 1002,
      "type": "SCALAR"
    },
    {
      "bufferView": 3,
      "byteOffset": 47808,
      "componentType": 5126,
      "count": 42,
      "max": [
        1.7116867303848267,
        1.627910852432251,
        0.4342224597930908
      ],
      "min": [
        -1.7116867303848267,
        -1.627910852432251,
        -0.4342231750488281
      ],
      "type": "VEC3"
    },
    {
      "bufferView": 3,
      "byteOffset": 48312,
      "componentType": 5126,
      "count": 42,
      "max": [
        1.0,
        0.9510565996170044,
        1.0
      ],
      "min": [
        -1.0,
        -0.9510565996170044,
        -1.0
      ],
      "type": "VEC3"
    },
    {
      "bufferView": 2,
      "byteOffset": 15936,
      "componentType": 5126,
      "count": 42,
      "max": [
        0.09355135262012482,
        0.8607968688011169
      ],
      "min": [
        0.018299993127584457,
        0.6961113810539246
      ],
      "type": "VEC2"
    },
    {
      "bufferView": 1,
      "byteOffset": 15360,
      "componentType": 5125,
      "count": 108,
      "type": "SCALAR"
    },
    {
      "bufferView": 3,
      "byteOffset": 48816,
      "componentType": 5126,
      "count": 42,
      "max": [
        1.7116867303848267,
        1.627910852432251,
        0.4342224597930908
      ],
      "min": [
        -1.7116867303848267,
        -1.627910852432251,
        -0.4342231750488281
      ],
      "type": "VEC3"
    },
    {
      "bufferView": 3,
      "byteOffset": 49320,
      "componentType": 5126,
      "count": 42,
      "max": [
        1.0,
        0.9510565996170044,
        1.0
      ],
      "min": [
        -1.0,
        -0.9510565996170044,
        -1.0
      ],
      "type": "VEC3"
    },
    {
      "bufferView": 2,
      "byteOffset": 16272,
      "componentType": 5126,
      "count": 42,
      "max": [
        0.09355135262012482,
        0.8607968688011169
      ],
      "min": [
        0.018299993127584457,
        0.6961113810539246
      ],
      "type": "VEC2"
    },
    {
      "bufferView": 1,
      "byteOffset": 15792,
      "componentType": 5125,
      "count": 108,
      "type": "SCALAR"
    },
    {
      "bufferView": 3,
      "byteOffset": 49824,
      "componentType": 5126,
      "count": 42,
      "max": [
        1.7116867303848267,
        1.627910852432251,
        0.4342224597930908
      ],
      "min": [
        -1.7116867303848267,
        -1.627910852432251,
        -0.4342231750488281
      ],
      "type": "VEC3"
    },
    {
      "bufferView": 3,
      "byteOffset": 50328,
      "componentType": 5126,
      "count": 42,
      "max": [
        1.0,
        0.9510565996170044,
        1.0
      ],
      "min": [
        -1.0,
        -0.9510565996170044,
        -1.0
      ],
      "type": "VEC3"
    },
    {
      "bufferView": 2,
      "byteOffset": 16608,
      "componentType": 5126,
      "count": 42,
      "max": [
        0.09355135262012482,
        0.8607968688011169
      ],
      "min": [
        0.018299993127584457,
        0.6961113810539246
      ],
      "type": "VEC2"
    },
    {
      "bufferView": 1,
      "byteOffset": 16224,
      "componentType": 5125,
      "count": 108,
      "type": "SCALAR"
    },
    {
      "bufferView": 3,
      "byteOffset": 50832,
      "componentType": 5126,
      "count": 42,
      "max": [
        1.7116867303848267,
        1.627910852432251,
        0.4342224597930908
      ],
      "min": [
        -1.7116867303848267,
        -1.627910852432251,
        -0.4342231750488281
      ],
      "type": "VEC3"
    },
    {
      "bufferView": 3,
      "byteOffset": 51336,
      "componentType": 5126,
      "count": 42,
      "max": [
        1.0,
        0.9510565996170044,
        1.0
      ],
      "min": [
        -1.0,
        -0.9510565996170044,
        -1.0
      ],
      "type": "VEC3"
    },
    {
      "bufferView": 2,
      "byteOffset": 16944,
      "componentType": 5126,
      "count": 42,
      "max": [
        0.09355135262012482,
        0.8607968688011169
      ],
      "min": [
        0.018299993127584457,
        0.6961113810539246
      ],
      "type": "VEC2"
    },
    {
      "bufferView": 1,
      "byteOffset": 16656,
      "componentType": 5125,
      "count": 108,
      "type": "SCALAR"
    },
    {
      "bufferView": 3,
      "byteOffset": 51840,
      "componentType": 5126,
      "count": 42,
      "max": [
        1.7116867303848267,
        1.627910852432251,
        0.4342224597930908
      ],
      "min": [
        -1.7116867303848267,
        -1.627910852432251,
        -0.4342231750488281
      ],
      "type": "VEC3"
    },
    {
      "bufferView": 3,
      "byteOffset": 52344,
      "componentType": 5126,
      "count": 42,
      "max": [
        1.0,
        0.9510565996170044,
        1.0
      ],
      "min": [
        -1.0,
        -0.9510565996170044,
        -1.0
      ],
      "type": "VEC3"
    },
    {
      "bufferView": 2,
      "byteOffset": 17280,
      "componentType": 5126,
      "count": 42,
      "max": [
        0.09355135262012482,
        0.8607968688011169
      ],
      "min": [
        0.018299993127584457,
        0.6961113810539246
      ],
      "type": "VEC2"
    },
    {
      "bufferView": 1,
      "byteOffset": 17088,
      "componentType": 5125,
      "count": 108,
      "type": "SCALAR"
    },
    {
      "bufferView": 3,
      "byteOffset": 52848,
      "componentType": 5126,
      "count": 42,
      "max": [
        1.7116867303848267,
        1.627910852432251,
        0.4342224597930908
      ],
      "min": [
        -1.7116867303848267,
        -1.627910852432251,
        -0.4342231750488281
      ],
      "type": "VEC3"
    },
    {
      "bufferView": 3,
      "byteOffset": 53352,
      "componentType": 5126,
      "count": 42,
      "max": [
        1.0,
        0.9510565996170044,
        1.0
      ],
      "min": [
        -1.0,
        -0.9510565996170044,
        -1.0
      ],
      "type": "VEC3"
    },
    {
      "bufferView": 2,
      "byteOffset": 17616,
      "componentType": 5126,
      "count": 42,
      "max": [
        0.09355135262012482,
        0.8607968688011169
      ],
      "min": [
        0.018299993127584457,
        0.6961113810539246
      ],
      "type": "VEC2"
    },
    {
      "bufferView": 1,
      "byteOffset": 17520,
      "componentType": 5125,
      "count": 108,
      "type": "SCALAR"
    },
    {
      "bufferView": 3,
      "byteOffset": 53856,
      "componentType": 5126,
      "count": 42,
      "max": [
        1.7116867303848267,
        1.627910852432251,
        0.4342224597930908
      ],
      "min": [
        -1.7116867303848267,
        -1.627910852432251,
        -0.4342231750488281
      ],
      "type": "VEC3"
    },
    {
      "bufferView": 3,
      "byteOffset": 54360,
      "componentType": 5126,
      "count": 42,
      "max": [
        1.0,
        0.9510565996170044,
        1.0
      ],
      "min": [
        -1.0,
        -0.9510565996170044,
        -1.0
      ],
      "type": "VEC3"
    },
    {
      "bufferView": 2,
      "byteOffset": 17952,
      "componentType": 5126,
      "count": 42,
      "max": [
        0.09355135262012482,
        0.8607968688011169
      ],
      "min": [
        0.018299993127584457,
        0.6961113810539246
      ],
      "type": "VEC2"
    },
    {
      "bufferView": 1,
      "byteOffset": 17952,
      "componentType": 5125,
      "count": 108,
      "type": "SCALAR"
    },
    {
      "bufferView": 3,
      "byteOffset": 54864,
      "componentType": 5126,
      "count": 42,
      "max": [
        1.7116867303848267,
        1.627910852432251,
        0.4342224597930908
      ],
      "min": [
        -1.7116867303848267,
        -1.627910852432251,
        -0.4342231750488281
      ],
      "type": "VEC3"
    },
    {
      "bufferView": 3,
      "byteOffset": 55368,
      "componentType": 5126,
      "count": 42,
      "max": [
        1.0,
        0.9510565996170044,
        1.0
      ],
      "min": [
        -1.0,
        -0.9510565996170044,
        -1.0
      ],
      "type": "VEC3"
    },
    {
      "bufferView": 2,
      "byteOffset": 18288,
      "componentType": 5126,
      "count": 42,
      "max": [
        0.09355135262012482,
        0.8607968688011169
      ],
      "min": [
        0.018299993127584457,
        0.6961113810539246
      ],
      "type": "VEC2"
    },
    {
      "bufferView": 1,
      "byteOffset": 18384,
      "componentType": 5125,
      "count": 108,
      "type": "SCALAR"
    },
    {
      "bufferView": 3,
      "byteOffset": 55872,
      "componentType": 5126,
      "count": 42,
      "max": [
        1.7116867303848267,
        1.627910852432251,
        0.4342224597930908
      ],
      "min": [
        -1.7116867303848267,
        -1.627910852432251,
        -0.4342231750488281
      ],
      "type": "VEC3"
    },
    {
      "bufferView": 3,
      "byteOffset": 56376,
      "componentType": 5126,
      "count": 42,
      "max": [
        1.0,
        0.9510565996170044,
        1.0
      ],
      "min": [
        -1.0,
        -0.9510565996170044,
        -1.0
      ],
      "type": "VEC3"
    },
    {
      "bufferView": 2,
      "byteOffset": 18624,
      "componentType": 5126,
      "count": 42,
      "max": [
        0.09355135262012482,
        0.8607968688011169
      ],
      "min": [
        0.018299993127584457,
        0.6961113810539246
      ],
      "type": "VEC2"
    },
    {
      "bufferView": 1,
      "byteOffset": 18816,
      "componentType": 5125,
      "count": 108,
      "type": "SCALAR"
    },
    {
      "bufferView": 3,
      "byteOffset": 56880,
      "componentType": 5126,
      "count": 42,
      "max": [
        1.7116867303848267,
        1.627910852432251,
        0.4342224597930908
      ],
      "min": [
        -1.7116867303848267,
        -1.627910852432251,
        -0.4342231750488281
      ],
      "type": "VEC3"
    },
    {
      "bufferView": 3,
      "byteOffset": 57384,
      "componentType": 5126,
      "count": 42,
      "max": [
        1.0,
        0.9510565996170044,
        1.0
      ],
      "min": [
        -1.0,
        -0.9510565996170044,
        -1.0
      ],
      "type": "VEC3"
    },
    {
      "bufferView": 2,
      "byteOffset": 18960,
      "componentType": 5126,
      "count": 42,
      "max": [
        0.09355135262012482,
        0.8607968688011169
      ],
      "min": [
        0.018299993127584457,
        0.6961113810539246
      ],
      "type": "VEC2"
    },
    {
      "bufferView": 1,
      "byteOffset": 19248,
      "componentType": 5125,
      "count": 108,
      "type": "SCALAR"
    },
    {
      "bufferView": 3,
      "byteOffset": 57888,
      "componentType": 5126,
      "count": 42,
      "max": [
        1.7116867303848267,
        1.627910852432251,
        0.4342224597930908
      ],
      "min": [
        -1.7116867303848267,
        -1.627910852432251,
        -0.4342231750488281
      ],
      "type": "VEC3"
    },
    {
      "bufferView": 3,
      "byteOffset": 58392,
      "componentType": 5126,
      "count": 42,
      "max": [
        1.0,
        0.9510565996170044,
        1.0
      ],
      "min": [
        -1.0,
        -0.9510565996170044,
        -1.0
      ],
      "type": "VEC3"
    },
    {
      "bufferView": 2,
      "byteOffset": 19296,
      "componentType": 5126,
      "count": 42,
      "max": [
        0.09355135262012482,
        0.8607968688011169
      ],
      "min": [
        0.018299993127584457,
        0.6961113810539246
      ],
      "type": "VEC2"
    },
    {
      "bufferView": 1,
      "byteOffset": 19680,
      "componentType": 5125,
      "count": 108,
      "type": "SCALAR"
    },
    {
      "bufferView": 3,
      "byteOffset": 58896,
      "componentType": 5126,
      "count": 42,
      "max": [
        1.7116867303848267,
        1.627910852432251,
        0.4342224597930908
      ],
      "min": [
        -1.7116867303848267,
        -1.627910852432251,
        -0.4342231750488281
      ],
      "type": "VEC3"
    },
    {
      "bufferView": 3,
      "byteOffset": 59400,
      "componentType": 5126,
      "count": 42,
      "max": [
        1.0,
        0.9510565996170044,
        1.0
      ],
      "min": [
        -1.0,
        -0.9510565996170044,
        -1.0
      ],
      "type": "VEC3"
    },
    {
      "bufferView": 2,
      "byteOffset": 19632,
      "componentType": 5126,
      "count": 42,
      "max": [
        0.09355135262012482,
        0.8607968688011169
      ],
      "min": [
        0.018299993127584457,
        0.6961113810539246
      ],
      "type": "VEC2"
    },
    {
      "bufferView": 1,
      "byteOffset": 20112,
      "componentType": 5125,
      "count": 108,
      "type": "SCALAR"
    },
    {
      "bufferView": 3,
      "byteOffset": 59904,
      "componentType": 5126,
      "count": 42,
      "max": [
        1.7116867303848267,
        1.627910852432251,
        0.4342224597930908
      ],
      "min": [
        -1.7116867303848267,
        -1.627910852432251,
        -0.4342231750488281
      ],
      "type": "VEC3"
    },
    {
      "bufferView": 3,
      "byteOffset": 60408,
      "componentType": 5126,
      "count": 42,
      "max": [
        1.0,
        0.9510565996170044,
        1.0
      ],
      "min": [
        -1.0,
        -0.9510565996170044,
        -1.0
      ],
      "type": "VEC3"
    },
    {
      "bufferView": 2,
      "byteOffset": 19968,
      "componentType": 5126,
      "count": 42,
      "max": [
        0.09355135262012482,
        0.8607968688011169
      ],
      "min": [
        0.018299993127584457,
        0.6961113810539246
      ],
      "type": "VEC2"
    },
    {
      "bufferView": 1,
      "byteOffset": 20544,
      "componentType": 5125,
      "count": 108,
      "type": "SCALAR"
    },
    {
      "bufferView": 3,
      "byteOffset": 60912,
      "componentType": 5126,
      "count": 42,
      "max": [
        1.7116867303848267,
        1.627910852432251,
        0.4342224597930908
      ],
      "min": [
        -1.7116867303848267,
        -1.627910852432251,
        -0.4342231750488281
      ],
      "type": "VEC3"
    },
    {
      "bufferView": 3,
      "byteOffset": 61416,
      "componentType": 5126,
      "count": 42,
      "max": [
        1.0,
        0.9510565996170044,
        1.0
      ],
      "min": [
        -1.0,
        -0.9510565996170044,
        -1.0
      ],
      "type": "VEC3"
    },
    {
      "bufferView": 2,
      "byteOffset": 20304,
      "componentType": 5126,
      "count": 42,
      "max": [
        0.09355135262012482,
        0.8607968688011169
      ],
      "min": [
        0.018299993127584457,
        0.6961113810539246
      ],
      "type": "VEC2"
    },
    {
      "bufferView": 1,
      "byteOffset": 20976,
      "componentType": 5125,
      "count": 108,
      "type": "SCALAR"
    },
    {
      "bufferView": 3,
      "byteOffset": 61920,
      "componentType": 5126,
      "count": 42,
      "max": [
        1.7116867303848267,
        1.627910852432251,
        0.4342224597930908
      ],
      "min": [
        -1.7116867303848267,
        -1.627910852432251,
        -0.4342231750488281
      ],
      "type": "VEC3"
    },
    {
      "bufferView": 3,
      "byteOffset": 62424,
      "componentType": 5126,
      "count": 42,
      "max": [
        1.0,
        0.9510565996170044,
        1.0
      ],
      "min": [
        -1.0,
        -0.9510565996170044,
        -1.0
      ],
      "type": "VEC3"
    },
    {
      "bufferView": 2,
      "byteOffset": 20640,
      "componentType": 5126,
      "count": 42,
      "max": [
        0.09355135262012482,
        0.8607968688011169
      ],
      "min": [
        0.018299993127584457,
        0.6961113810539246
      ],
      "type": "VEC2"
    },
    {
      "bufferView": 1,
      "byteOffset": 21408,
      "componentType": 5125,
      "count": 108,
      "type": "SCALAR"
    },
    {
      "bufferView": 3,
      "byteOffset": 62928,
      "componentType": 5126,
      "count": 42,
      "max": [
        1.7116867303848267,
        1.627910852432251,
        0.4342224597930908
      ],
      "min": [
        -1.7116867303848267,
        -1.627910852432251,
        -0.4342231750488281
      ],
      "type": "VEC3"
    },
    {
      "bufferView": 3,
      "byteOffset": 63432,
      "componentType": 5126,
      "count": 42,
      "max": [
        1.0,
        0.9510565996170044,
        1.0
      ],
      "min": [
        -1.0,
        -0.9510565996170044,
        -1.0
      ],
      "type": "VEC3"
    },
    {
      "bufferView": 2,
      "byteOffset": 20976,
      "componentType": 5126,
      "count": 42,
      "max": [
        0.09355135262012482,
        0.8607968688011169
      ],
      "min": [
        0.018299993127584457,
        0.6961113810539246
      ],
      "type": "VEC2"
    },
    {
      "bufferView": 1,
      "byteOffset": 21840,
      "componentType": 5125,
      "count": 108,
      "type": "SCALAR"
    },
    {
      "bufferView": 5,
      "componentType": 5126,
      "count": 2,
      "max": [
        1.0,
        0.9998885989189148,
        1.8369019868463794e-16,
        0.0,
        1.8276208218501874e-18,
        1.0,
        1.0,
        0.0,
        0.9998885989189148,
        0.014923657290637493,
        1.0,
        0.0,
        11.99033260345459,
        0.17895956337451935,
        0.0,
        1.0
      ],
      "min": [
        -0.014923657290637493,
        0.0,
        0.0,
        0.0,
        0.0,
        -1.836833694815007e-16,
        0.0,
        0.0,
        0.0,
        0.0,
        9.138105143226703e-19,
        0.0,
        0.0,
        0.0,
        -35.532386779785156,
        1.0
      ],
      "type": "MAT4"
    },
    {
      "bufferView": 0,
      "componentType": 5123,
      "count": 358,
      "type": "VEC4"
    },
    {
      "bufferView": 4,
      "componentType": 5126,
      "count": 358,
      "max": [
        1.0,
        0.0,
        0.0,
        0.0
      ],
      "min": [
        1.0,
        0.0,
        0.0,
        0.0
      ],
      "type": "VEC4"
    },
    {
      "bufferView": 6,
      "componentType": 5126,
      "count": 321,
      "max": [
        13.333333015441895
      ],
      "min": [
        0.0
      ],
      "type": "SCALAR"
    },
    {
      "bufferView": 7,
      "componentType": 5126,
      "count": 321,
      "max": [
        2.9360087628300073e-17,
        13.989130020141602,
        -4.721128940582275
      ],
      "min": [
        -1.63763904524026e-18,
        13.989130020141602,
        -4.721128940582275
      ],
      "type": "VEC3"
    },
    {
      "bufferView": 6,
      "byteOffset": 1284,
      "componentType": 5126,
      "count": 321,
      "max": [
        13.333333015441895
      ],
      "min": [
        0.0
      ],
      "type": "SCALAR"
    },
    {
      "bufferView": 8,
      "componentType": 5126,
      "count": 321,
      "max": [
        0.6687831282615662,
        0.6726888418197632,
        0.5044447779655457,
        -0.2179214358329773
      ],
      "min": [
        0.495515376329422,
        0.5042436122894287,
        0.22962819039821625,
        -0.4957200586795807
      ],
      "type": "VEC4"
    }
  ],
  "animations": [
    {
      "channels": [
        {
          "sampler": 0,
          "target": {
            "node": 8,
            "path": "translation"
          }
        },
        {
          "sampler": 1,
          "target": {
            "node": 8,
            "path": "rotation"
          }
        }
      ],
      "name": "Opening Lid",
      "samplers": [
        {
          "input": 79,
          "interpolation": "LINEAR",
          "output": 80
        },
        {
          "input": 81,
          "interpolation": "LINEAR",
          "output": 82
        }
      ]
    }
  ],
  "asset": {
    "extras": {
      "author": "FazFazz (https://sketchfab.com/FazFazz)",
      "license": "CC-BY-4.0 (http://creativecommons.org/licenses/by/4.0/)",
      "source": "https://sketchfab.com/3d-models/sandy-treasure-chest-1cf15b0f7a2e414091c7cf0464071140",
      "title": "Sandy Treasure Chest"
    },
    "generator": "Sketchfab-13.17.0",
    "version": "2.0"
  },
  "bufferViews": [
    {
      "buffer": 0,
      "byteLength": 2864,
      "byteStride": 8,
      "name": "shortBufferViews",
      "target": 34962
    },
    {
      "buffer": 0,
      "byteLength": 22272,
      "byteOffset": 2864,
      "name": "floatBufferViews",
      "target": 34963
    },
    {
      "buffer": 0,
      "byteLength": 21312,
      "byteOffset": 25136,
      "byteStride": 8,
      "name": "floatBufferViews",
      "target": 34962
    },
    {
      "buffer": 0,
      "byteLength": 63936,
      "byteOffset": 46448,
      "byteStride": 12,
      "name": "floatBufferViews",
      "target": 34962
    },
    {
      "buffer": 0,
      "byteLength": 5728,
      "byteOffset": 110384,
      "byteStride": 16,
      "name": "floatBufferViews",
      "target": 34962
    },
    {
      "buffer": 0,
      "byteLength": 128,
      "byteOffset": 116112,
      "name": "floatBufferViews"
    },
    {
      "buffer": 0,
      "byteLength": 2568,
      "byteOffset": 116240,
      "name": "floatBufferViews"
    },
    {
      "buffer": 0,
      "byteLength": 3852,
      "byteOffset": 118808,
      "byteStride": 12,
      "name": "floatBufferViews"
    },
    {
      "buffer": 0,
      "byteLength": 5136,
      "byteOffset": 122660,
      "byteStride": 16,
      "name": "floatBufferViews"
    }
  ],
  "buffers": [
    {
      "byteLength": 127796,
      "uri": "scene.bin"
    }
  ],
  "images": [
    {
      "uri": "textures/Chest_baseColor.jpeg"
    },
    {
      "uri": "textures/Base_baseColor.jpeg"
    }
  ],
  "materials": [
    {
      "doubleSided": true,
      "name": "Chest",
      "pbrMetallicRoughness": {
        "baseColorTexture": {
          "index": 0
        },
        "metallicFactor": 0.0,
        "roughnessFactor": 0.8929713596497552
      }
    },
    {
      "doubleSided": true,
      "name": "Base",
      "pbrMetallicRoughness": {
        "baseColorTexture": {
          "index": 1
        },
        "metallicFactor": 0.0,
        "roughnessFactor": 0.8929713596497552
      }
    }
  ],
  "meshes": [
    {
      "name": "Lid_Chest_0",
      "primitives": [
        {
          "attributes": {
            "JOINTS_0": 77,
            "NORMAL": 1,
            "POSITION": 0,
            "TEXCOORD_0": 2,
            "WEIGHTS_0": 78
          },
          "indices": 3,
          "material": 0,
          "mode": 4
        }
      ]
    },
    {
      "name": "Chest_Chest_0",
      "primitives": [
        {
          "attributes": {
            "NORMAL": 5,
            "POSITION": 4,
            "TEXCOORD_0": 6
          },
          "indices": 7,
          "material": 0,
          "mode": 4
        }
      ]
    },
    {
      "name": "Base_Base_0",
      "primitives": [
        {
          "attributes": {
            "NORMAL": 9,
            "POSITION": 8,
            "TEXCOORD_0": 10
          },
          "indices": 11,
          "material": 1,
          "mode": 4
        }
      ]
    },
    {
      "name": "Coin001_Base_0",
      "primitives": [
        {
          "attributes": {
            "NORMAL": 13,
            "POSITION": 12,
            "TEXCOORD_0": 14
          },
          "indices": 15,
          "material": 1,
          "mode": 4
        }
      ]
    },
    {
      "name": "Coin002_Base_0",
      "primitives": [
        {
          "attributes": {
            "NORMAL": 17,
            "POSITION": 16,
            "TEXCOORD_0": 18
          },
          "indices": 19,
          "material": 1,
          "mode": 4
        }
      ]
    },
    {
      "name": "Coin003_Base_0",
      "primitives": [
        {
          "attributes": {
            "NORMAL": 21,
            "POSITION": 20,
            "TEXCOORD_0": 22
          },
          "indices": 23,
          "material": 1,
          "mode": 4
        }
      ]
    },
    {
      "name": "Coin004_Base_0",
      "primitives": [
        {
          "attributes": {
            "NORMAL": 25,
            "POSITION": 24,
            "TEXCOORD_0": 26
          },
          "indices": 27,
          "material": 1,
          "mode": 4
        }
      ]
    },
    {
      "name": "Coin005_Base_0",
      "primitives": [
        {
          "attributes": {
            "NORMAL": 29,
            "POSITION": 28,
            "TEXCOORD_0": 30
          },
          "indices": 31,
          "material": 1,
          "mode": 4
        }
      ]
    },
    {
      "name": "Coin006_Base_0",
      "primitives": [
        {
          "attributes": {
            "NORMAL": 33,
            "POSITION": 32,
            "TEXCOORD_0": 34
          },
          "indices": 35,
          "material": 1,
          "mode": 4
        }
      ]
    },
    {
      "name": "Coin007_Base_0",
      "primitives": [
        {
          "attributes": {
            "NORMAL": 37,
            "POSITION": 36,
            "TEXCOORD_0": 38
          },
          "indices": 39,
          "material": 1,
          "mode": 4
        }
      ]
    },
    {
      "name": "Coin008_Base_0",
      "primitives": [
        {
          "attributes": {
            "NORMAL": 41,
            "POSITION": 40,
            "TEXCOORD_0": 42
          },
          "indices": 43,
          "material": 1,
          "mode": 4
        }
      ]
    },
    {
      "name": "Coin009_Base_0",
      "primitives": [
        {
          "attributes": {
            "NORMAL": 45,
            "POSITION": 44,
            "TEXCOORD_0": 46
          },
          "indices": 47,
          "material": 1,
          "mode": 4
        }
      ]
    },
    {
      "name": "Coin010_Base_0",
      "primitives": [
        {
          "attributes": {
            "NORMAL": 49,
            "POSITION": 48,
            "TEXCOORD_0": 50
          },
          "indices": 51,
          "material": 1,
          "mode": 4
        }
      ]
    },
    {
      "name": "Coin011_Base_0",
      "primitives": [
        {
          "attributes": {
            "NORMAL": 53,
            "POSITION": 52,
            "TEXCOORD_0": 54
          },
          "indices": 55,
          "material": 1,
          "mode": 4
        }
      ]
    },
    {
      "name": "Coin012_Base_0",
      "primitives": [
        {
          "attributes": {
            "NORMAL": 57,
            "POSITION": 56,
            "TEXCOORD_0": 58
          },
          "indices": 59,
          "material": 1,
          "mode": 4
        }
      ]
    },
    {
      "name": "Coin013_Base_0",
      "primitives": [
        {
          "attributes": {
            "NORMAL": 61,
            "POSITION": 60,
            "TEXCOORD_0": 62
          },
          "indices": 63,
          "material": 1,
          "mode": 4
        }
      ]
    },
    {
      "name": "Coin014_Base_0",
      "primitives": [
        {
          "attributes": {
            "NORMAL": 65,
            "POSITION": 64,
            "TEXCOORD_0": 66
          },
          "indices": 67,
          "material": 1,
          "mode": 4
        }
      ]
    },
    {
      "name": "Coin015_Base_0",
      "primitives": [
        {
          "attributes": {
            "NORMAL": 69,
            "POSITION": 68,
            "TEXCOORD_0": 70
          },
          "indices": 71,
          "material": 1,
          "mode": 4
        }
      ]
    },
    {
      "name": "Coin016_Base_0",
      "primitives": [
        {
          "attributes": {
            "NORMAL": 73,
            "POSITION": 72,
            "TEXCOORD_0": 74
          },
          "indices": 75,
          "material": 1,
          "mode": 4
        }
      ]
    }
  ],
  "nodes": [
    {
      "children": [
        1
      ],
      "matrix": [
        1.5384615659713745,
        0.0,
        0.0,
        0.0,
        0.0,
        3.4160709060845884e-16,
        -1.5384615659713745,
        0.0,
        0.0,
        1.5384615659713745,
        3.4160709060845884e-16,
        0.0,
        0.0,
        0.0,
        0.0,
        1.0
      ],
      "name": "Sketchfab_model"
    },
    {
      "children": [
        2
      ],
      "matrix": [
        0.02539999969303608,
        0.0,
        0.0,
        0.0,
        0.0,
        0.0,
        0.02539999969303608,
        0.0,
        0.0,
        -0.02539999969303608,
        0.0,
        0.0,
        0.0,
        0.0,
        0.0,
        1.0
      ],
      "name": "16167a798c8e4ad1bda23329ecb5e2bd.fbx"
    },
    {
      "children": [
        3
      ],
      "name": "Object_2"
    },
    {
      "children": [
        4
      ],
      "name": "RootNode"
    },
    {
      "children": [
        5,
        7,
        6,
        10,
        13,
        15,
        17,
        19,
        21,
        23,
        25,
        27,
        29,
        31,
        33,
        35,
        37,
        39,
        41,
        43,
        45
      ],
      "name": "Object_4"
    },
    {
      "children": [
        8
      ],
      "name": "_rootJoint"
    },
    {
      "matrix": [
        0.3937007874015751,
        -2.0954117794933126e-31,
        -8.673617379884035e-18,
        0.0,
        -8.673617379884035e-18,
        2.4107220455656576e-17,
        -0.3937007874015751,
        0.0,
        2.1007228383739634e-31,
        0.393700787401575,
        2.410722045565657e-17,
        0.0,
        4.456719295117856e-08,
        13.689732668906663,
        -5.1817359952769415,
        1.0
      ],
      "name": "Object_6"
    },
    {
      "mesh": 0,
      "name": "Object_7",
      "skin": 0
    },
    {
      "children": [
        9
      ],
      "name": "Bone001_00",
      "rotation": [
        0.49561774730682373,
        0.5043441653251648,
        0.5043441653251648,
        -0.49561774730682373
      ],
      "scale": [
        0.3937007784843445,
        0.3937007784843445,
        0.3937007784843445
      ],
      "translation": [
        -1.625021955959412e-18,
        13.989129066467285,
        -4.721129417419434
      ]
    },
    {
      "name": "Lid",
      "rotation": [
        -1.3941234431057709e-33,
        1.0024921452343682e-32,
        0.7123633623123169,
        0.7018108367919922
      ],
      "translation": [
        -1.169163703918457,
        -0.017451301217079163,
        -0.5859260559082031
      ]
    },
    {
      "children": [
        11
      ],
      "name": "Chest",
      "rotation": [
        -0.7071068286895752,
        -0.0,
        0.0,
        0.7071068286895752
      ],
      "scale": [
        0.38082873821258545,
        0.3937007784843445,
        0.38082873821258545
      ]
    },
    {
      "children": [
        12
      ],
      "matrix": [
        1.0,
        0.0,
        -0.0,
        0.0,
        0.0,
        1.0,
        0.0,
        0.0,
        0.0,
        0.0,
        1.0,
        0.0,
        0.0,
        -2.86102294921875e-06,
        5.66745185852051,
        1.0
      ],
      "name": "Object_11"
    },
    {
      "mesh": 1,
      "name": "Chest_Chest_0"
    },
    {
      "children": [
        14
      ],
      "name": "Base",
      "rotation": [
        -0.7010573744773865,
        0.09229595959186554,
        0.09229595959186554,
        0.7010573744773865
      ],
      "scale": [
        0.3500806987285614,
        0.3500806987285614,
        0.3500806987285614
      ]
    },
    {
      "mesh": 2,
      "name": "Base_Base_0"
    },
    {
      "children": [
        16
      ],
      "name": "Coin001",
      "rotation": [
        -0.5440297722816467,
        -0.0370001494884491,
        -0.11202516406774521,
        0.8307303786277771
      ],
      "scale": [
        0.3937007784843445,
        0.3937007784843445,
        0.3937007784843445
      ],
      "translation": [
        3.051595687866211,
        12.723236083984375,
        1.2361676692962646
      ]
    },
    {
      "mesh": 3,
      "name": "Coin001_Base_0"
    },
    {
      "children": [
        18
      ],
      "name": "Coin002",
      "rotation": [
        -0.2819731533527374,
        0.6110364198684692,
        0.7025399804115295,
        0.23143739998340607
      ],
      "scale": [
        0.3937007784843445,
        0.3937007784843445,
        0.3937007784843445
      ],
      "translation": [
        -6.765566825866699,
        12.505867004394531,
        0.9084487557411194
      ]
    },
    {
      "mesh": 4,
      "name": "Coin002_Base_0"
    },
    {
      "children": [
        20
      ],
      "name": "Coin003",
      "rotation": [
        -0.7291901707649231,
        -0.11312072724103928,
        -0.049165841192007065,
        0.6731033325195313
      ],
      "scale": [
        0.3937007784843445,
        0.3937007784843445,
        0.3937007784843445
      ],
      "translation": [
        -2.994558811187744,
        12.532461166381836,
        -1.4056111574172974
      ]
    },
    {
      "mesh": 5,
      "name": "Coin003_Base_0"
    },
    {
      "children": [
        22
      ],
      "name": "Coin004",
      "rotation": [
        -0.7699263691902161,
        -0.05676903575658798,
        -0.11357291787862778,
        0.6253734230995178
      ],
      "scale": [
        0.3937007784843445,
        0.3937007784843445,
        0.3937007784843445
      ],
      "translation": [
        6.73660945892334,
        12.456116676330566,
        -1.373224139213562
      ]
    },
    {
      "mesh": 6,
      "name": "Coin004_Base_0"
    },
    {
      "children": [
        24
      ],
      "name": "Coin005",
      "rotation": [
        -0.6244058609008789,
        -0.08427643775939941,
        -0.09293690323829651,
        0.7709588408470154
      ],
      "scale": [
        0.3937007784843445,
        0.3937007784843445,
        0.3937007784843445
      ],
      "translation": [
        -0.2885807156562805,
        12.875755310058594,
        1.325368881225586
      ]
    },
    {
      "mesh": 7,
      "name": "Coin005_Base_0"
    },
    {
      "children": [
        26
      ],
      "name": "Coin006",
      "rotation": [
        -0.7712003588676453,
        -0.07926662266254425,
        -0.0953732281923294,
        0.6243963241577148
      ],
      "scale": [
        0.3937007784843445,
        0.3937007784843445,
        0.3937007784843445
      ],
      "translation": [
        1.2026586532592773,
        12.8743896484375,
        -1.6859325170516968
      ]
    },
    {
      "mesh": 8,
      "name": "Coin006_Base_0"
    },
    {
      "children": [
        28
      ],
      "name": "Coin007",
      "rotation": [
        -0.1410316377878189,
        0.7323080897331238,
        0.6619052886962891,
        0.07560642063617706
      ],
      "scale": [
        0.3937007784843445,
        0.3937007784843445,
        0.3937007784843445
      ],
      "translation": [
        -5.731785774230957,
        12.487283706665039,
        -2.599898099899292
      ]
    },
    {
      "mesh": 9,
      "name": "Coin007_Base_0"
    },
    {
      "children": [
        30
      ],
      "name": "Coin008",
      "rotation": [
        0.10613580793142319,
        0.7403557896614075,
        0.6482763886451721,
        -0.142640620470047
      ],
      "scale": [
        0.3937007784843445,
        0.3937007784843445,
        0.3937007784843445
      ],
      "translation": [
        -1.6205098628997803,
        12.838492393493652,
        -1.2193955183029175
      ]
    },
    {
      "mesh": 10,
      "name": "Coin008_Base_0"
    },
    {
      "children": [
        32
      ],
      "name": "Coin009",
      "rotation": [
        -0.08619216084480286,
        0.524760365486145,
        0.8352580666542053,
        0.13979068398475647
      ],
      "scale": [
        0.3937007784843445,
        0.3937007784843445,
        0.3937007784843445
      ],
      "translation": [
        2.4898154735565186,
        12.5160493850708,
        2.097306966781616
      ]
    },
    {
      "mesh": 11,
      "name": "Coin009_Base_0"
    },
    {
      "children": [
        34
      ],
      "name": "Coin010",
      "rotation": [
        -0.0777718722820282,
        0.7453460097312927,
        0.6479057669639587,
        0.1364879459142685
      ],
      "scale": [
        0.3937007784843445,
        0.3937007784843445,
        0.3937007784843445
      ],
      "translation": [
        5.506211280822754,
        12.656715393066406,
        -0.8084380030632019
      ]
    },
    {
      "mesh": 12,
      "name": "Coin010_Base_0"
    },
    {
      "children": [
        36
      ],
      "name": "Coin011",
      "rotation": [
        -0.08757413178682327,
        0.7964789271354675,
        0.5864575505256653,
        0.11840470880270004
      ],
      "scale": [
        0.3937007784843445,
        0.3937007784843445,
        0.3937007784843445
      ],
      "translation": [
        4.930046558380127,
        12.14479923248291,
        -2.852926015853882
      ]
    },
    {
      "mesh": 13,
      "name": "Coin011_Base_0"
    },
    {
      "children": [
        38
      ],
      "name": "Coin012",
      "rotation": [
        -0.0992465391755104,
        0.6220058798789978,
        0.768399178981781,
        0.11323228478431702
      ],
      "scale": [
        0.3937007784843445,
        0.3937007784843445,
        0.3937007784843445
      ],
      "translation": [
        -0.8168416023254395,
        13.1029052734375,
        1.0830650329589844
      ]
    },
    {
      "mesh": 14,
      "name": "Coin012_Base_0"
    },
    {
      "children": [
        40
      ],
      "name": "Coin013",
      "rotation": [
        -0.08719640970230103,
        0.7602615356445313,
        0.6323047280311584,
        0.12078876793384552
      ],
      "scale": [
        0.3937007784843445,
        0.3937007784843445,
        0.3937007784843445
      ],
      "translation": [
        1.9076024293899536,
        13.2793607711792,
        -1.2408117055892944
      ]
    },
    {
      "mesh": 15,
      "name": "Coin013_Base_0"
    },
    {
      "children": [
        42
      ],
      "name": "Coin014",
      "rotation": [
        0.44852152466773987,
        0.4883826673030853,
        0.6354737877845764,
        -0.3955804705619812
      ],
      "scale": [
        0.3937007784843445,
        0.3937007784843445,
        0.3937007784843445
      ],
      "translation": [
        -5.855103969573975,
        12.726181983947754,
        1.2859355211257935
      ]
    },
    {
      "mesh": 16,
      "name": "Coin014_Base_0"
    },
    {
      "children": [
        44
      ],
      "name": "Coin015",
      "rotation": [
        -0.11670777946710587,
        0.7060059309005737,
        0.6887573599815369,
        0.1163967177271843
      ],
      "scale": [
        0.3937007784843445,
        0.3937007784843445,
        0.3937007784843445
      ],
      "translation": [
        0.3072355091571808,
        12.353476524353027,
        3.7021780014038086
      ]
    },
    {
      "mesh": 17,
      "name": "Coin015_Base_0"
    },
    {
      "children": [
        46
      ],
      "name": "Coin016",
      "rotation": [
        0.6506372690200806,
        -0.3366062641143799,
        -0.5305291414260864,
        -0.4265047013759613
      ],
      "scale": [
        0.3937007784843445,
        0.3937007784843445,
        0.3937007784843445
      ],
      "translation": [
        -0.03905333951115608,
        13.251660346984863,
        -0.3289550244808197
      ]
    },
    {
      "mesh": 18,
      "name": "Coin016_Base_0"
    }
  ],
  "samplers": [
    {
      "magFilter": 9729,
      "minFilter": 9987,
      "wrapS": 10497,
      "wrapT": 10497
    }
  ],
  "scene": 0,
  "scenes": [
    {
      "name": "Sketchfab_Scene",
      "nodes": [
        0
      ]
    }
  ],
  "skins": [
    {
      "inverseBindMatrices": 76,
      "joints": [
        5,
        8
      ],
      "skeleton": 5
    }
  ],
  "textures": [
    {
      "sampler": 0,
      "source": 0
    },
    {
      "sampler": 0,
      "source": 1
    }
  ]
}
